# xmcd CD database file
#
# Track frame offsets:
#	150
#	49189
#	100679
#	127964
#	165749
#
# Disc length: 2611 seconds
#
# Revision: 0
# Processed by: cddbd v1.5.2PL0 Copyright (c) Steve Scherf et al.
# Submitted via: CDex 1.70beta2
#
DISCID=370a3105
DTITLE=Koichi Matsukaze Trio and Toshiyuki Daitoku - Earth Mother
DYEAR=2018
DGENRE=Jazz
TTITLE0=Images In Alone
TTITLE1=Earth Mother
TTITLE2=Zekatsuma Selbst
TTITLE3=Round Midnight
TTITLE4=Don't Worry About Tenor Saxophone
EXTD=YEAR: 2018
EXTT0=
EXTT1=
EXTT2=
EXTT3=
EXTT4=
PLAYORDER=
